<svg xmlns="http://www.w3.org/2000/svg" viewBox="0 0 720 1280" role="img" aria-label="Biblical adventure map background">
  <defs>
    <linearGradient id="sky" x1="0" x2="0" y1="0" y2="1">
      <stop offset="0" stop-color="#5dd5ff"/>
      <stop offset="0.42" stop-color="#bdf3ff"/>
      <stop offset="0.43" stop-color="#a9e973"/>
      <stop offset="1" stop-color="#67c15c"/>
    </linearGradient>
    <radialGradient id="sun" cx="78%" cy="10%" r="26%">
      <stop offset="0" stop-color="#fff6a3"/>
      <stop offset="0.42" stop-color="#ffd966" stop-opacity=".62"/>
      <stop offset="1" stop-color="#ffd966" stop-opacity="0"/>
    </radialGradient>
    <filter id="soft" x="-20%" y="-20%" width="140%" height="140%">
      <feGaussianBlur stdDeviation="5"/>
    </filter>
  </defs>
  <rect width="720" height="1280" fill="url(#sky)"/>
  <rect width="720" height="1280" fill="url(#sun)"/>
  <g fill="#fff" opacity=".72" filter="url(#soft)">
    <ellipse cx="120" cy="160" rx="128" ry="34"/>
    <ellipse cx="480" cy="230" rx="156" ry="38"/>
    <ellipse cx="650" cy="118" rx="118" ry="30"/>
  </g>
  <path d="M0 840 C120 760 188 820 270 748 C360 668 492 734 720 604 L720 1280 L0 1280 Z" fill="#4fb46b"/>
  <path d="M0 1006 C162 906 262 976 360 880 C468 776 584 804 720 702 L720 1280 L0 1280 Z" fill="#318b62" opacity=".55"/>
  <path d="M78 1280 C140 1090 212 944 344 834 C462 736 560 700 668 620" fill="none" stroke="#f8d77a" stroke-width="54" stroke-linecap="round"/>
  <path d="M78 1280 C140 1090 212 944 344 834 C462 736 560 700 668 620" fill="none" stroke="#8b6235" stroke-width="4" stroke-dasharray="16 24" opacity=".26"/>
  <g fill="#20315f" opacity=".18">
    <path d="M128 612 l52 -116 l58 116z"/>
    <path d="M444 558 l64 -142 l78 142z"/>
    <path d="M288 694 l46 -92 l52 92z"/>
  </g>
</svg>
